<svg xmlns="http://www.w3.org/2000/svg" id="freepik_stories-code-typing" class="animated" version="1.1" viewBox="0 0 500 500">
  <style>
    @keyframes fadeIn{0%{opacity:0}}@keyframes slideLeft{0%{opacity:0;transform:translateX(-30px)}}@keyframes slideUp{0%{opacity:0;transform:translateY(30px)}}@keyframes slideRight{0%{opacity:0;transform:translateX(30px)}}@keyframes slideDown{0%{opacity:0;transform:translateY(-30px)}}svg#freepik_stories-code-typing:not(.animated) .animable{opacity:0}
  </style>
  <g id="freepik--background-simple--inject-26" class="animable" style="animation:.6s 1 forwards ease-out fadeIn;animation-delay:0s">
    <path id="elwm7t8kyfdv" fill="#27E4C0" d="M482 246a120 120 0 0 1-4 28l-2 9-1 3-1 2v1l-1 2-1 2-1 1v2l-1 2-1 1-1 1v2l-4 5a112 112 0 0 1-1 3l-2 3-2 2-1 2-1 2-2 2-1 1-2 3-1 1-2 3-2 3-3 3-2 3-6 7-13 14a541 541 0 0 1-67 59l-8 5-3 1v1l-3 1-3 2-1 1-6 3-4 1-3 1-1 1-3 1-5 2-2 1h-2l-2 1-1 1-4 1a171 171 0 0 1-12 3h-4l-2 1h-5a155 155 0 0 1-22 2h-1a177 177 0 0 1-19-2h-4l-2-1a189 189 0 0 1-19-3l-1-1h-2l-7-2-8-3-3-1-9-3-2-1-1-1h-1l-6-3-2-1a250 250 0 0 1-14-8 700 700 0 0 1-119-89l-2-2-1-1-1-2-1-2-2-2v-1l-2-2-1-3-2-4-1-1a91 91 0 0 1-3-10 80 80 0 0 1-3-7v-1a57 57 0 0 1-1-6v-2l-1-2v-2a1 1 0 0 0 0-1v-11a66 66 0 0 1 1-6l1-4a70 70 0 0 1 3-10 72 72 0 0 1 4-8 112 112 0 0 1 24-28l3-3 5-4 7-6 7-5 10-8 3-2 3-3a214 214 0 0 0 23-22l5-5 2-2 27-31 7-7a158 158 0 0 1 24-20l3-2c100-62 173-42 222 0l11 10 6 6 1 1 4 4 1 2 1 2 3 2 1 2a228 228 0 0 1 19 26l1 2 1 2 1 3 1 2 2 2 1 2 1 2 1 2 1 2 1 2 4 7 1 4 7 17v1l1 2v1l1 1v2l1 4 1 2v1a21 21 0 0 0 1 2l1 5v2l1 3v6l1 1a218 218 0 0 0 0 6v3l1 2v7Z" class="animable" transform-origin="250.34px 249.813px"/>
    <g id="elbmhx210ia4">
      <g id="elv00yfi7ed4" class="animable" opacity=".7">
        <path id="el74hh7uzr12s" fill="#fff" d="M482 246a120 120 0 0 1-4 28l-2 9-1 3-1 2v1l-1 2-1 2-1 1v2l-1 2-1 1-1 1v2l-4 5a112 112 0 0 1-1 3l-2 3-2 2-1 2-1 2-2 2-1 1-2 3-1 1-2 3-2 3-3 3-2 3-6 7-13 14a541 541 0 0 1-67 59l-8 5-3 1v1l-3 1-3 2-1 1-6 3-4 1-3 1-1 1-3 1-5 2-2 1h-2l-2 1-1 1-4 1a171 171 0 0 1-12 3h-4l-2 1h-5a155 155 0 0 1-22 2h-1a177 177 0 0 1-19-2h-4l-2-1a189 189 0 0 1-19-3l-1-1h-2l-7-2-8-3-3-1-9-3-2-1-1-1h-1l-6-3-2-1a250 250 0 0 1-14-8 700 700 0 0 1-119-89l-2-2-1-1-1-2-1-2-2-2v-1l-2-2-1-3-2-4-1-1a91 91 0 0 1-3-10 80 80 0 0 1-3-7v-1a57 57 0 0 1-1-6v-2l-1-2v-2a1 1 0 0 0 0-1v-11a66 66 0 0 1 1-6l1-4a70 70 0 0 1 3-10 72 72 0 0 1 4-8c6-10 13-18 21-26l2-1 1-1 3-3 5-4 7-6 7-6 3-2 7-5 3-2 3-3a214 214 0 0 0 23-22l5-5 2-2 27-31 7-7a158 158 0 0 1 24-20l3-2c100-62 173-42 222 0l11 10 6 6 1 1 4 4 1 2 1 2 3 2 1 2a228 228 0 0 1 19 26l1 2 1 2 1 3 1 2 2 2 1 2 1 2 1 2 1 2 1 2 4 7 1 4 7 17v1l1 2v1l1 1v2l1 4 1 2v1a21 21 0 0 0 1 2l1 5v2l1 3v6l1 1a218 218 0 0 0 0 6v3l1 2v7Z" class="animable" transform-origin="250.34px 249.813px"/>
      </g>
    </g>
  </g>
  <g id="freepik--Plant--inject-26" class="animable" style="animation:.48s 1 forwards ease-out slideLeft;animation-delay:0s">
    <g id="elnj1cw7otpl">
      <path id="elcecwvoddltj" fill="#263238" d="M32 262Z" class="animable" opacity=".2" transform-origin="32.074px 262.193px"/>
    </g>
    <g id="eldc712nlo3p4">
      <path id="el1tc6tb0v0nx" d="M126 253a18 18 0 0 1-13 15l-2 1c-9 12-25 18-38 10l-4-2-11-13c-4 0-8 0-10-3a3 3 0 1 1-6-3c-2 2-5 1-7-1a67 67 0 0 1 2-17 70 70 0 0 1 3-10 72 72 0 0 1 4-8 88 88 0 0 1 7-10l1-2 3-2 5-4 7-6v-1l7-5 3-2a9 9 0 0 1 2 0c3 1 3 4 5 5 2 3 5-1 9-1 11 0 7 12 12 11 25-7 21 25 10 32 6 5 12 8 11 16Z" class="animable" opacity=".2" transform-origin="80.2272px 236.216px"/>
    </g>
    <ellipse id="elnktqtrrlk" cx="72.8" cy="242.4" fill="#fff" stroke="#263238" stroke-miterlimit="10" class="animable" rx="41.4" ry="40.9" transform-origin="72.84px 242.39px"/>
    <ellipse id="eld5y5ih0g6xg" cx="72.8" cy="240.7" fill="#263238" stroke="#fff" stroke-miterlimit="10" class="animable" rx="37.8" ry="37.3" transform-origin="72.84px 240.73px"/>
    <path id="elpf4gq2vujnh" fill="#27e4c0" d="M32 255c-2 2-3 7-1 9s6 1 6-3a1 1 0 0 0 2 0 2 2 0 0 0 0-2c2 1 4 0 4-2-1 6 4 10 8 8-1 2 0 5 2 6s4-1 6-2l5-3 5 2c6 1 12-1 16-6 3 4 9 2 11-3 0 2 2 4 4 4s4-2 5-4c0 2 2 4 4 2a9 9 0 0 0 2-9c3 0 5-3 6-7s-2-7-4-8c4-2 8-8 8-14s-3-12-8-14a5 5 0 0 0-5 1c0-3-2-6-4-8-4-3-9-1-12 4a9 9 0 0 0 0-8c-1-3-4-4-6-3 0-3-3-6-6-5s-5 4-5 8c0-3-4-4-5-1-2-4-6-6-9-5-4 2-7 6-8 11a7 7 0 0 0-9 1c-2 2-4 7-3 11-3-3-8-1-10 3s-1 11 3 12c-3 1-5 4-5 7s2 6 5 5c-3 1-5 3-5 7s1 6 3 6Z" class="animable" transform-origin="74.867px 230.19px"/>
    <g id="elkcxhftycbwk">
      <g id="elncsmej8rni" class="animable" opacity=".2">
        <path id="el5ef3sghjj9u" fill="#fff" d="M70 241a4 4 0 0 0-4-1 5 5 0 0 0-3 4l2 4c2 0 4-2 5-1a11 11 0 0 1 2 0c3 1 5-1 7-3a10 10 0 0 0 2-3 4 4 0 0 0 0-3c0-1-2-2-3-1a13 13 0 0 0-7 4v-2Z" class="animable" transform-origin="72.477px 242.309px"/>
        <path id="el03uoz28mk6p" fill="#fff" d="M106 236a6 6 0 0 0-2-1 2 2 0 0 0-2 1 3 3 0 0 0 1 4 5 5 0 0 0 3 1l3-1a3 3 0 0 0-1-3 5 5 0 0 0-2-2Z" class="animable" transform-origin="105.398px 237.819px"/>
        <path id="el7mn3gq30hq9" fill="#fff" d="M50 216a11 11 0 0 0-5 7l1 3a2 2 0 0 0 1 0l7-3a10 10 0 0 0-3 2 5 5 0 0 0-1 4 3 3 0 0 0 3 3 6 6 0 0 0 3-2 7 7 0 0 0 3-5c0-2-2-3-3-2a24 24 0 0 0 7-4 9 9 0 0 0 2-3 4 4 0 0 0 0-4c-2-5-5 3-6 4-3 1-6-2-9 0Z" class="animable" transform-origin="55.3313px 221.294px"/>
        <path id="elni07qt5ratb" fill="#fff" d="M39 239a3 3 0 0 0 1 3 1 1 0 0 0 2-1 8 8 0 0 0-4 3c-1 2-1 4 1 5l2-1a57 57 0 0 0 7-6 3 3 0 0 0 3 4l4-2c2-2 4-4 4-6a3 3 0 0 0-5-3l-4 5c1-2 0-5-2-5s-3 1-4 3c2-2 3-5 0-5-2 0-4 4-5 6Z" class="animable" transform-origin="48.0219px 240.893px"/>
        <path id="elkw6zb2spuaq" fill="#fff" d="M90 228c-2 0-3 1-4 3s1 3 2 4a4 4 0 0 0-3 2 4 4 0 0 0 0 2 2 2 0 0 0 2 2 5 5 0 0 0 2-1 4 4 0 0 0-2 1 3 3 0 0 0-1 3h3a11 11 0 0 0 4-4 4 4 0 0 0 3 2 3 3 0 0 0 3-4 3 3 0 0 0-3-2 6 6 0 0 0-2 1 7 7 0 0 0 2-3c0-2 0-4-2-3l-3 3c-1-1 2-5-1-6Z" class="animable" transform-origin="91.7666px 236.008px"/>
        <path id="elua7brd81a0l" fill="#fff" d="m66 223-2 6c0 2 1 5 3 6s5-2 6-5a8 8 0 0 0-3-8 3 3 0 0 0-4 1Z" class="animable" transform-origin="68.7064px 228.494px"/>
        <path id="elyqhxfgws5n" fill="#fff" d="m83 219 1 1a3 3 0 0 0-5-1 5 5 0 0 0 0 6 3 3 0 0 0 5-1 4 4 0 0 0 5-1c1-2 1-6-1-7s-4 1-4 4v-1Z" class="animable" transform-origin="83.9917px 220.9px"/>
        <path id="elnn6g3kn2fzr" fill="#fff" d="M101 222a14 14 0 0 0-3 5l2 5c1 1 3-2 4-3a8 8 0 0 0 1-6c0-2-2-2-3-1Z" class="animable" transform-origin="101.918px 226.556px"/>
        <path id="eluethmtpanpb" fill="#fff" d="M75 211a2 2 0 0 0-4-1 5 5 0 0 0-1 5 4 4 0 0 0 3 3 4 4 0 0 0 4-4 3 3 0 0 0 4 1 9 9 0 0 0 3-2c2-1 3-3 3-5a3 3 0 0 0-3-3 5 5 0 0 0-3 2l-3 3-3 1Z" class="animable" transform-origin="78.5872px 211.19px"/>
      </g>
    </g>
  </g>
  <g id="freepik--Keyboard--inject-26" class="animable" style="animation:.6s 1 forwards ease-out slideUp;animation-delay:0s">
    <path id="elkqh6xam2ii8" fill="#27e4c0" stroke="#263238" stroke-linecap="round" stroke-linejoin="round" d="M146 273h230v97H146z" class="animable" transform-origin="261.015px 321.335px"/>
    <path id="el7pqf9pzyszx" fill="#fff" stroke="#263238" stroke-miterlimit="10" d="M151 279h21v12h-22z" class="animable" transform-origin="161.35px 284.645px"/>
    <path id="el9zp9yp6roc" fill="#fff" stroke="#263238" stroke-miterlimit="10" d="M337 337h34v12h-34z" class="animable" transform-origin="353.92px 343.205px"/>
    <path id="elmk104ly5egf" fill="#fff" stroke="#263238" stroke-miterlimit="10" d="M350 294h21v12h-21z" class="animable" transform-origin="360.46px 299.645px"/>
    <path id="elzhwo6am0fr" fill="#fff" stroke="#263238" stroke-miterlimit="10" d="M151 322h21v12h-22z" class="animable" transform-origin="161.35px 328.395px"/>
    <path id="el18grnvew0n2" fill="#fff" stroke="#263238" stroke-miterlimit="10" d="M151 308h17v12h-17z" class="animable" transform-origin="159.285px 313.925px"/>
    <path id="elpl7sti7vzur" fill="#fff" stroke="#263238" stroke-miterlimit="10" d="M151 293h12v12h-12z" class="animable" transform-origin="156.505px 299.285px"/>
    <path id="eliqs5sj1xt7" fill="#fff" stroke="#263238" stroke-miterlimit="10" d="M166 293h12v12h-12z" class="animable" transform-origin="171.845px 299.285px"/>
    <path id="elqfjhej34mg8" fill="#fff" stroke="#263238" stroke-miterlimit="10" d="M181 293h12v12h-12z" class="animable" transform-origin="187.175px 299.285px"/>
    <path id="elhruzjx3q387" fill="#fff" stroke="#263238" stroke-miterlimit="10" d="M197 293h12v12h-12z" class="animable" transform-origin="202.505px 299.285px"/>
    <path id="elakepkcyzuyc" fill="#fff" stroke="#263238" stroke-miterlimit="10" d="M212 293h12v12h-12z" class="animable" transform-origin="217.845px 299.285px"/>
    <path id="elgexb8251v3o" fill="#fff" stroke="#263238" stroke-miterlimit="10" d="M227 293h12v12h-12z" class="animable" transform-origin="233.175px 299.285px"/>
    <path id="elw51rgnd74hc" fill="#fff" stroke="#263238" stroke-miterlimit="10" d="M243 293h12v12h-12z" class="animable" transform-origin="248.505px 299.285px"/>
    <path id="elgfjv9m462sq" fill="#fff" stroke="#263238" stroke-miterlimit="10" d="M258 293h12v12h-12z" class="animable" transform-origin="263.845px 299.285px"/>
    <path id="elnktulnh33ni" fill="#fff" stroke="#263238" stroke-miterlimit="10" d="M273 293h12v12h-12z" class="animable" transform-origin="279.175px 299.285px"/>
    <path id="elatvem09q4be" fill="#fff" stroke="#263238" stroke-miterlimit="10" d="M289 293h12v12h-12z" class="animable" transform-origin="294.505px 299.285px"/>
    <path id="eli6e40zv9nc" fill="#fff" stroke="#263238" stroke-miterlimit="10" d="M304 293h12v12h-12z" class="animable" transform-origin="309.845px 299.285px"/>
    <path id="el3kib7lsa2zc" fill="#fff" stroke="#263238" stroke-miterlimit="10" d="M319 293h12v12h-12z" class="animable" transform-origin="325.175px 299.285px"/>
    <path id="elmbqzo3aek6c" fill="#fff" stroke="#263238" stroke-miterlimit="10" d="M335 293h12v12h-12z" class="animable" transform-origin="340.515px 299.285px"/>
    <path id="el5j723gszuqd" fill="#fff" stroke="#263238" stroke-miterlimit="10" d="M151 352h12v12h-12z" class="animable" transform-origin="156.505px 358.025px"/>
    <path id="ellpf18xrg1nc" fill="#fff" stroke="#263238" stroke-miterlimit="10" d="M166 352h12v12h-12z" class="animable" transform-origin="171.845px 358.025px"/>
    <path id="elctzjh9slrv8" fill="#fff" stroke="#263238" stroke-miterlimit="10" d="M181 352h12v12h-12z" class="animable" transform-origin="187.175px 358.025px"/>
    <path id="el1dx8xja2ire" fill="#fff" stroke="#263238" stroke-miterlimit="10" d="M197 352h14v12h-14z" class="animable" transform-origin="203.83px 358.025px"/>
    <path id="elx5ccacw164" fill="#fff" stroke="#263238" stroke-miterlimit="10" d="M214 352h74v12h-74z" class="animable" transform-origin="251.155px 358.025px"/>
    <path id="elgoo0j0q2nqp" fill="#fff" stroke="#263238" stroke-miterlimit="10" d="M312 352h13v12h-13z" class="animable" transform-origin="318.495px 358.025px"/>
    <path id="el3k88qm3iaz1" fill="#fff" stroke="#263238" stroke-miterlimit="10" d="M328 352h12v12h-12z" class="animable" transform-origin="333.825px 358.025px"/>
    <path id="elln3nts9huw9" fill="#fff" stroke="#263238" stroke-miterlimit="10" d="M343 352h12v12h-12z" class="animable" transform-origin="349.185px 358.025px"/>
    <path id="elwxha4siyabj" fill="#fff" stroke="#263238" stroke-miterlimit="10" d="M291 352h18v12h-18z" class="animable" transform-origin="300.155px 358.025px"/>
    <path id="elep2zsp7ixe8" fill="#fff" stroke="#263238" stroke-miterlimit="10" d="M359 352h12v12h-12z" class="animable" transform-origin="365.005px 358.025px"/>
    <path id="elpjls2084qn" fill="#fff" stroke="#263238" stroke-miterlimit="10" d="M171 308h12v12h-12z" class="animable" transform-origin="177.485px 313.925px"/>
    <path id="el7n4vyh8jdrd" fill="#fff" stroke="#263238" stroke-miterlimit="10" d="M187 308h12v12h-12z" class="animable" transform-origin="192.815px 313.925px"/>
    <path id="el4h6jixl88y8" fill="#fff" stroke="#263238" stroke-miterlimit="10" d="M202 308h12v12h-12z" class="animable" transform-origin="208.155px 313.925px"/>
    <path id="el8vttbi7wkqp" fill="#fff" stroke="#263238" stroke-miterlimit="10" d="M217 308h12v12h-12z" class="animable" transform-origin="223.485px 313.925px"/>
    <path id="elf17dyazj99" fill="#fff" stroke="#263238" stroke-miterlimit="10" d="M233 308h12v12h-12z" class="animable" transform-origin="238.825px 313.925px"/>
    <path id="elkxtun789kpf" fill="#fff" stroke="#263238" stroke-miterlimit="10" d="M248 308h12v12h-12z" class="animable" transform-origin="254.155px 313.925px"/>
    <path id="elevs8af9pe9c" fill="#fff" stroke="#263238" stroke-miterlimit="10" d="M263 308h12v12h-12z" class="animable" transform-origin="269.485px 313.925px"/>
    <path id="elxa54deiprah" fill="#fff" stroke="#263238" stroke-miterlimit="10" d="M279 308h12v12h-12z" class="animable" transform-origin="284.825px 313.925px"/>
    <path id="elgp90gduncer" fill="#fff" stroke="#263238" stroke-miterlimit="10" d="M294 308h12v12h-12z" class="animable" transform-origin="300.155px 313.925px"/>
    <path id="el4hbxiz8ftzg" fill="#fff" stroke="#263238" stroke-miterlimit="10" d="M309 308h12v12h-12z" class="animable" transform-origin="315.485px 313.925px"/>
    <path id="el6a7viw7dyrw" fill="#fff" stroke="#263238" stroke-miterlimit="10" d="M325 308h12v12h-12z" class="animable" transform-origin="330.825px 313.925px"/>
    <path id="elxrrq3g3os2" fill="#fff" stroke="#263238" stroke-miterlimit="10" d="M340 308h12v12h-12z" class="animable" transform-origin="346.155px 313.925px"/>
    <path id="ele72pse0d6j" fill="#fff" stroke="#263238" stroke-miterlimit="10" d="M371 308v27h-12v-15h-4v-12h16z" class="animable" transform-origin="363.245px 321.25px"/>
    <path id="el0qvx0izbrnq" fill="#fff" stroke="#263238" stroke-miterlimit="10" d="M175 323h12v12h-12z" class="animable" transform-origin="181.005px 328.565px"/>
    <path id="eltvyjav8dek" fill="#fff" stroke="#263238" stroke-miterlimit="10" d="M190 323h12v12h-12z" class="animable" transform-origin="196.335px 328.565px"/>
    <path id="elbmcpmd5oxy5" fill="#fff" stroke="#263238" stroke-miterlimit="10" d="M206 323h12v12h-12z" class="animable" transform-origin="211.665px 328.565px"/>
    <path id="elfc4e1aoy33" fill="#fff" stroke="#263238" stroke-miterlimit="10" d="M221 323h12v12h-12z" class="animable" transform-origin="227.005px 328.565px"/>
    <path id="elsvp5qwcgep" fill="#fff" stroke="#263238" stroke-miterlimit="10" d="M236 323h12v12h-12z" class="animable" transform-origin="242.335px 328.565px"/>
    <path id="elqot9vcuj5yp" fill="#fff" stroke="#263238" stroke-miterlimit="10" d="M252 323h12v12h-12z" class="animable" transform-origin="257.675px 328.565px"/>
    <path id="eld7yx6b7859v" fill="#fff" stroke="#263238" stroke-miterlimit="10" d="M267 323h12v12h-12z" class="animable" transform-origin="273.005px 328.565px"/>
    <path id="elwy99skui9q9" fill="#fff" stroke="#263238" stroke-miterlimit="10" d="M282 323h12v12h-12z" class="animable" transform-origin="288.335px 328.565px"/>
    <path id="elqb2fkfgl7ie" fill="#fff" stroke="#263238" stroke-miterlimit="10" d="M298 323h12v12h-12z" class="animable" transform-origin="303.675px 328.565px"/>
    <path id="el0lg9f8orylgf" fill="#fff" stroke="#263238" stroke-miterlimit="10" d="M313 323h12v12h-12z" class="animable" transform-origin="319.005px 328.565px"/>
    <path id="el0qfi6h4gnwm" fill="#fff" stroke="#263238" stroke-miterlimit="10" d="M328 323h12v12h-12z" class="animable" transform-origin="334.335px 328.565px"/>
    <path id="elkd7mgxn0awh" fill="#fff" stroke="#263238" stroke-miterlimit="10" d="M344 323h12v12h-12z" class="animable" transform-origin="349.675px 328.565px"/>
    <path id="elrsjcz6i5pe9" fill="#fff" stroke="#263238" stroke-miterlimit="10" d="M168 337h12v12h-12z" class="animable" transform-origin="174.485px 343.205px"/>
    <path id="el91rcsejk3gg" fill="#fff" stroke="#263238" stroke-miterlimit="10" d="M184 337h12v12h-12z" class="animable" transform-origin="189.815px 343.205px"/>
    <path id="el7rfut06ldhj" fill="#fff" stroke="#263238" stroke-miterlimit="10" d="M199 337h12v12h-12z" class="animable" transform-origin="205.155px 343.205px"/>
    <path id="eljuhg6eul4wn" fill="#fff" stroke="#263238" stroke-miterlimit="10" d="M214 337h12v12h-12z" class="animable" transform-origin="220.485px 343.205px"/>
    <path id="elr4v7ercn5sj" fill="#fff" stroke="#263238" stroke-miterlimit="10" d="M230 337h12v12h-12z" class="animable" transform-origin="235.815px 343.205px"/>
    <path id="elh114q5qqbgn" fill="#fff" stroke="#263238" stroke-miterlimit="10" d="M245 337h12v12h-12z" class="animable" transform-origin="251.155px 343.205px"/>
    <path id="elrwa432w6teh" fill="#fff" stroke="#263238" stroke-miterlimit="10" d="M260 337h12v12h-12z" class="animable" transform-origin="266.485px 343.205px"/>
    <path id="el880x7o2imkb" fill="#fff" stroke="#263238" stroke-miterlimit="10" d="M276 337h12v12h-12z" class="animable" transform-origin="281.825px 343.205px"/>
    <path id="elzl8z1evag0q" fill="#fff" stroke="#263238" stroke-miterlimit="10" d="M291 337h12v12h-12z" class="animable" transform-origin="297.155px 343.205px"/>
    <path id="el23z50gudsxj" fill="#fff" stroke="#263238" stroke-miterlimit="10" d="M306 337h12v12h-12z" class="animable" transform-origin="312.485px 343.205px"/>
    <path id="elod3jyd5xme" fill="#fff" stroke="#263238" stroke-miterlimit="10" d="M322 337h12v12h-12z" class="animable" transform-origin="327.825px 343.205px"/>
    <path id="el6ppp13wuct8" fill="#fff" stroke="#263238" stroke-miterlimit="10" d="M175 279h12v12h-12z" class="animable" transform-origin="181.005px 285.365px"/>
    <path id="el3r1e3x2obwa" fill="#fff" stroke="#263238" stroke-miterlimit="10" d="M190 279h12v12h-12z" class="animable" transform-origin="196.335px 285.365px"/>
    <path id="eldwrruze82yd" fill="#fff" stroke="#263238" stroke-miterlimit="10" d="M206 279h12v12h-12z" class="animable" transform-origin="211.665px 285.365px"/>
    <path id="elod3jg1zdqj" fill="#fff" stroke="#263238" stroke-miterlimit="10" d="M221 279h12v12h-12z" class="animable" transform-origin="227.005px 285.365px"/>
    <path id="eliz6konfj6m" fill="#fff" stroke="#263238" stroke-miterlimit="10" d="M236 279h12v12h-12z" class="animable" transform-origin="242.335px 285.365px"/>
    <path id="elozp316c3zvs" fill="#fff" stroke="#263238" stroke-miterlimit="10" d="M252 279h12v12h-12z" class="animable" transform-origin="257.675px 285.365px"/>
    <path id="elj6devwxvku" fill="#fff" stroke="#263238" stroke-miterlimit="10" d="M267 279h12v12h-12z" class="animable" transform-origin="273.005px 285.365px"/>
    <path id="elmvm8trvu2qf" fill="#fff" stroke="#263238" stroke-miterlimit="10" d="M282 279h12v12h-12z" class="animable" transform-origin="288.335px 285.365px"/>
    <path id="el5u1wfy2fiza" fill="#fff" stroke="#263238" stroke-miterlimit="10" d="M298 279h12v12h-12z" class="animable" transform-origin="303.675px 285.365px"/>
    <path id="elxzwzj115pff" fill="#fff" stroke="#263238" stroke-miterlimit="10" d="M313 279h12v12h-12z" class="animable" transform-origin="319.005px 285.365px"/>
    <path id="el3y54xe8wart" fill="#fff" stroke="#263238" stroke-miterlimit="10" d="M328 279h12v12h-12z" class="animable" transform-origin="334.335px 285.365px"/>
    <path id="elchvc4obwi5h" fill="#fff" stroke="#263238" stroke-miterlimit="10" d="M344 279h12v12h-12z" class="animable" transform-origin="349.675px 285.365px"/>
    <path id="elnzmqkx28f5" fill="#fff" stroke="#263238" stroke-miterlimit="10" d="M359 279h12v12h-12z" class="animable" transform-origin="365.005px 285.365px"/>
    <path id="elqsguumdv5n" fill="#fff" stroke="#263238" stroke-miterlimit="10" d="M151 337h14v12h-14z" class="animable" transform-origin="157.775px 343.205px"/>
    <path id="elci6ji4kkr4f" fill="#263238" d="m146 273 5-1h222l3 1H146z" class="animable" transform-origin="261.035px 272.58px"/>
  </g>
  <g id="freepik--Coffee--inject-26" class="animable" style="animation:.48s 1 forwards ease-out slideRight;animation-delay:0s">
    <circle id="elz7fu1ru9ih" cx="423.4" cy="228.4" r="41.5" fill="none" stroke="#263238" stroke-linecap="round" stroke-linejoin="round" class="animable" transform-origin="423.44px 228.39px"/>
    <g id="ellfzqs8i5l0q">
      <path id="eloigfilo3ti" d="M470 229c-8 15-12 13-42 27-15 8-30-16-20-40l5-7a22 22 0 0 1 39-9 24 24 0 0 1 21-5l1 3v1l1 3 2 7a14 14 0 0 0-10 1l-6 3c-2 0-6 1-7-1 2 4 6 3 11 4 7 1 9 7 5 13Z" class="animable" opacity=".2" transform-origin="440.936px 224.79px"/>
    </g>
    <path id="el6lh5dw7nnzw" fill="#fff" stroke="#263238" stroke-linecap="round" stroke-linejoin="round" d="M457 222h11a7 7 0 0 1 4 2 2 2 0 0 1 1 2v5a2 2 0 0 1-1 2c-1 2-6 4-18 5-19 2 3-16 3-16Z" class="animable" transform-origin="459.543px 230.127px"/>
    <path id="el1iq5xxyvp6i" fill="#fff" stroke="#263238" stroke-linecap="round" stroke-linejoin="round" d="M451 207a28 28 0 0 1 6 18c0 7-8 31-28 33-22 3-39-15-36-37 3-16 41-35 58-14Z" class="animable" transform-origin="425.2px 228.199px"/>
    <ellipse id="el3gjzww7thlw" cx="424.8" cy="223.4" fill="#fff" class="animable" rx="31.5" ry="29.8" transform-origin="424.82px 223.41px"/>
    <ellipse id="elnje1snm8rq9" cx="424.8" cy="225" fill="#263238" class="animable" rx="25.8" ry="24.4" transform-origin="424.76px 224.97px"/>
    <path id="elkmepu2t7rve" fill="none" stroke="#263238" stroke-linecap="round" stroke-linejoin="round" d="M456 223c0-16-14-29-31-29s-32 13-32 29" class="animable" transform-origin="424.82px 208.52px"/>
    <path id="el0fwavp06oso" fill="none" stroke="#263238" stroke-linecap="round" stroke-linejoin="round" d="M448 244a29 29 0 0 0 8-21" class="animable" transform-origin="452.15px 233.49px"/>
    <path id="eligjp02k3e6" fill="none" stroke="#263238" stroke-linecap="round" stroke-linejoin="round" d="M403 245a32 32 0 0 0 22 8 33 33 0 0 0 14-3" class="animable" transform-origin="421.085px 248.935px"/>
    <path id="elfptu9wxlwz4" fill="none" stroke="#263238" stroke-linecap="round" stroke-linejoin="round" d="m398 239 2 2" class="animable" transform-origin="398.89px 240.26px"/>
    <path id="elsfv68sg17u" fill="none" stroke="#263238" stroke-linecap="round" stroke-linejoin="round" d="M393 223a28 28 0 0 0 3 13" class="animable" transform-origin="394.85px 229.765px"/>
    <path id="elj4oypvepkp" fill="#fff" stroke="#263238" stroke-linecap="round" stroke-linejoin="round" d="M471 232s-6-4-15-1" class="animable" transform-origin="463.64px 230.639px"/>
    <path id="elrnc7mck35nj" fill="#fff" stroke="#263238" stroke-linecap="round" stroke-linejoin="round" d="M466 234a57 57 0 0 1-11 2" class="animable" transform-origin="460.36px 235.205px"/>
    <path id="ellc7shtiijeo" fill="#fff" stroke="#263238" stroke-linecap="round" stroke-linejoin="round" d="M469 233a5 5 0 0 1-1 1" class="animable" transform-origin="468.39px 233.415px"/>
    <path id="el49jtb53mf8r" fill="#fff" d="M474 199v-1l-8-20-1-3h-1c-3 0-6 0-8 2s-4 5-3 7 6 4 5 7c-6 4-14 3-21 5a35 35 0 0 0-12 6 37 37 0 0 0-3 2 13 13 0 0 0-2 2 5 5 0 0 0-1 2c0 3 2 5 5 6a1 1 0 0 1 0 1 15 15 0 0 0-5 3 1 1 0 0 0 1 2h1a8 8 0 0 1 3 0 4 4 0 0 1 3 3c0 2-3 4-6 4l1 1a16 16 0 0 0 7 0c2-1 5-2 6-4a5 5 0 0 0 1-3 3 3 0 0 0-3-3 87 87 0 0 0 14-3h1a13 13 0 0 0 4-2 5 5 0 0 0 2-2c1-2-1-5-3-5l20-6 3-1Z" class="animable" transform-origin="446.553px 201.408px"/>
  </g>
  <g id="freepik--Monitor--inject-26" class="animable" style="animation:.6s 1 forwards ease-out slideDown;animation-delay:0s">
    <g id="elp7d966n7iv">
      <path id="eleub3wo7i7kg" d="M425 112a127 127 0 0 1-20 14c-37 22-78 35-120 41a566 566 0 0 1-151-2c-6-3-12-8-15-14l28-31 6-7 7-6 7-6 11-8 3-2c100-62 173-42 222 0l11 10 6 6 1 1 4 4Z" class="animable" opacity=".2" transform-origin="272.045px 112.023px"/>
    </g>
    <path id="elaizkcwj93ib" fill="#fff" stroke="#263238" stroke-linecap="round" stroke-linejoin="round" d="m429 102-336 2 5-8a13 13 0 0 1 11-6h304a13 13 0 0 1 10 5Z" class="animable" transform-origin="260.845px 97.19px"/>
    <rect id="eluvls3am6fx" width="86.7" height="86.7" x="214.2" y="152.7" fill="#757575" stroke="#263238" stroke-linecap="round" stroke-linejoin="round" class="animable" rx="34.1" transform-origin="257.5px 196.01px"/>
    <path id="elknyvolnbkab" fill="#999" stroke="#263238" stroke-linecap="round" stroke-linejoin="round" d="M230 203v13a7 7 0 0 0 7 7h42a7 7 0 0 0 7-7l1-13Z" class="animable" transform-origin="258.22px 213px"/>
    <path id="elkqpw9sd9b8" fill="#bfbfbf" stroke="#263238" stroke-linecap="round" stroke-linejoin="round" d="M385 207H137a6 6 0 0 1-5-4l-39-97a4 4 0 0 1 4-6h328a4 4 0 0 1 4 6l-38 97a6 6 0 0 1-6 4Z" class="animable" transform-origin="261.01px 153.845px"/>
    <path id="elc4agemnervj" fill="#263238" d="M386 199H135l-35-93h321l-35 93z" class="animable" transform-origin="260.635px 152.685px"/>
    <path id="elt297jte5un" fill="#263238" d="M230 207h56v4h-56z" class="animable" transform-origin="258.21px 209.24px"/>
    <path id="ell4a8c999gzd" fill="#27e4c0" d="M350 195H172l-2-1-25-80c0-1 0-2 2-2h228c2 0 2 1 2 2l-25 80-2 1Z" class="animable" transform-origin="260.919px 153.54px"/>
    <path id="elwwr6xh9n2br" fill="#263238" d="M349 193H173l-22-70h220l-22 70z" class="animable" transform-origin="260.93px 157.875px"/>
    <path id="elmm8tksrlxul" fill="#fff" d="M198 140h-33l-1 1a2 2 0 0 0 1 1h33l2-1-2-1Z" class="animable" transform-origin="181.636px 141.133px"/>
    <path id="elgcues2r6la9" fill="#fff" d="M199 146h-28l-1 1a2 2 0 0 0 1 1h29l1-1-2-1Z" class="animable" transform-origin="185.232px 147.198px"/>
    <g id="elib5x6qlrk6i">
      <path id="el3bjdhtpaluq" fill="#fff" d="M200 152h-32l-1 1a2 2 0 0 0 2 1h32l1-1-2-1Z" class="animable" opacity=".5" transform-origin="184.388px 153.023px"/>
    </g>
    <path id="el6mmrsaarjdj" fill="#fff" d="M201 158h-19l-1 1 2 1h19l1-1-2-1Z" class="animable" transform-origin="192.061px 158.67px"/>
    <path id="eldk64j6eleus" fill="#fff" d="M202 163h-31l-1 1 2 1h31l1-1-2-1Z" class="animable" transform-origin="186.977px 164.12px"/>
    <path id="eli0eb55cfda" fill="#fff" d="M203 169h-26l2 1h25l1-1h-2Z" class="animable" transform-origin="190.93px 169.4px"/>
    <path id="eledvpwmn8jnn" fill="#fff" d="M204 174h-26l2 1h26l-2-1Z" class="animable" transform-origin="192.07px 174.505px"/>
    <path id="elruf8w9hs87a" fill="#fff" d="M205 179h-28l2 1h26l2-1h-2Z" class="animable" transform-origin="191.815px 179.44px"/>
    <g id="elheveospy05g">
      <path id="eldk6a7ab7jxf" fill="#fff" d="M206 183h-17l-1 1 1 1h17c1 0 2 0 1-1l-1-1Z" class="animable" opacity=".5" transform-origin="197.497px 184.225px"/>
    </g>
    <g id="elgqn59be4p0h">
      <path id="eltjtkci2wc1l" fill="#fff" d="M197 134h-25l-1 1a2 2 0 0 0 2 1h24l2-1a2 2 0 0 0-2-1Z" class="animable" opacity=".5" transform-origin="184.723px 134.809px"/>
    </g>
    <path id="elc6105cccxbb" fill="#fff" d="M196 127h-35l-1 1a2 2 0 0 0 2 1h34c1 0 2 0 1-1a2 2 0 0 0-1-1Z" class="animable" transform-origin="178.661px 128.323px"/>
    <path id="elupoalcos0mr" fill="#fff" d="M207 188h-29l-1 1 2 1h28l1-1-1-1Z" class="animable" transform-origin="192.72px 188.86px"/>
    <g id="elmun648utm9">
      <path id="elvz1c60htmeh" fill="#fff" d="M210 142h6v-2h-7l1 2z" class="animable" opacity=".5" transform-origin="212.87px 141.115px"/>
    </g>
    <g id="el36nlvr7wwzv">
      <path id="el7cpgc0pm1vv" fill="#fff" d="M211 148h6v-2h-7l1 2z" class="animable" opacity=".5" transform-origin="213.72px 147.175px"/>
    </g>
    <g id="elqbkiavcxpdn">
      <path id="elmctf2y54px" fill="#fff" d="M212 154h6v-2h-7l1 2z" class="animable" opacity=".5" transform-origin="214.545px 153.02px"/>
    </g>
    <g id="elp8bqy7x3tf">
      <path id="eld0mkeb40l4m" fill="#fff" d="M212 160h7l-1-2h-6v2z" class="animable" opacity=".5" transform-origin="215.34px 158.67px"/>
    </g>
    <g id="el821hee3yd1">
      <path id="el6wp1prl83ly" fill="#fff" d="M213 165h6v-2h-6v2z" class="animable" opacity=".5" transform-origin="216.11px 164.125px"/>
    </g>
    <g id="el88fgmy4pqdw">
      <path id="el9fc08zxdzw8" fill="#fff" d="M214 170h6v-2h-6v2z" class="animable" opacity=".5" transform-origin="216.845px 169.4px"/>
    </g>
    <g id="elleo2tw7doz">
      <path id="elir5ah3ecyt" fill="#fff" d="M215 176h6l-1-3h-5v3z" class="animable" opacity=".5" transform-origin="217.57px 174.505px"/>
    </g>
    <g id="el0mwy0x434omk">
      <path id="elnn05mfuuhx9" fill="#fff" d="M216 180h5v-2h-6l1 2z" class="animable" opacity=".5" transform-origin="218.26px 179.44px"/>
    </g>
    <g id="eljltoqqbscpn">
      <path id="el8k9den1p5wm" fill="#fff" d="M216 185h6v-2h-6v2z" class="animable" opacity=".5" transform-origin="218.935px 184.225px"/>
    </g>
    <g id="elajx1ag5rdbq">
      <path id="elol225ppjc9" fill="#fff" d="M209 136h6v-2h-7l1 2z" class="animable" opacity=".5" transform-origin="211.985px 134.84px"/>
    </g>
    <g id="elaa0rs0k9wqk">
      <path id="elot9axeo6vqn" fill="#fff" d="M208 130h7l-1-3h-6v3z" class="animable" opacity=".5" transform-origin="211.065px 128.32px"/>
    </g>
    <g id="elixz5rut8f4">
      <path id="elm3nyqzw2kdm" fill="#fff" d="M217 190h6l-1-2h-5v2z" class="animable" opacity=".5" transform-origin="219.585px 188.865px"/>
    </g>
    <path id="elmi39elvklt" fill="#fff" d="M251 179h98a2 2 0 0 1-1 1h-96l-1-1Z" class="animable" transform-origin="300.164px 179.444px"/>
    <path id="el75uzc654t1s" fill="#fff" d="M349 175h-54l1-1h55a2 2 0 0 1-2 1Z" class="animable" transform-origin="322.769px 174.509px"/>
    <g id="eltnaica22q58">
      <path id="el5kjsyhupgpb" fill="#fff" d="M283 175h-17l1-1h18l-2 1Z" class="animable" opacity=".5" transform-origin="275.276px 174.505px"/>
    </g>
    <path id="elbmfxsercuis" fill="#fff" d="M318 170h-75l-1-1h77l-1 1Z" class="animable" transform-origin="280.559px 169.4px"/>
    <g id="el3wfvt3ylc24">
      <path id="el8q32esl56ai" fill="#fff" d="M227 169h7l-1 1h-5l-2-1h1Z" class="animable" opacity=".5" transform-origin="230.184px 169.4px"/>
    </g>
    <path id="elkf5v6dypsp" fill="#fff" d="m329 164-2 1h-70l-2-1 2-1h71l1 1Z" class="animable" transform-origin="292.011px 164.12px"/>
    <path id="el8eoers08s4k" fill="#fff" d="M227 163h20l1 1-1 1h-20l-1-1 1-1Z" class="animable" transform-origin="236.933px 164.12px"/>
    <path id="eld65egzhvjtb" fill="#fff" d="M226 158h77l2 1-2 1h-77l-1-1 1-1Z" class="animable" transform-origin="264.741px 158.67px"/>
    <path id="ely3jk90zclr" fill="#fff" d="m276 154-1-1 1-1h41l1 1-1 1Z" class="animable" transform-origin="296.519px 153.02px"/>
    <path id="elmcx47none1" fill="#fff" d="M226 152h35l1 1-1 1h-35l-2-1 2-1Z" class="animable" transform-origin="243.293px 153.02px"/>
    <path id="el5nnmqsd20ho" fill="#fff" d="M357 148h-97l-1-1 1-1h97l2 1a2 2 0 0 1-2 1Z" class="animable" transform-origin="308.723px 147.158px"/>
    <path id="elrdcksy4pj49" fill="#fff" d="M359 142h-85l-2-1 2-1h85l1 1a2 2 0 0 1-1 1Z" class="animable" transform-origin="316.279px 141.113px"/>
    <g id="elhv4jzr5bdoa">
      <path id="elqptinbrxii" fill="#fff" d="M360 136h-17l-2-1a2 2 0 0 1 2-1h18l1 1a2 2 0 0 1-2 1Z" class="animable" opacity=".5" transform-origin="351.791px 134.858px"/>
    </g>
    <path id="elavwy27v0jp4" fill="#fff" d="M330 136h-65l-2-1 2-1h66l1 1a2 2 0 0 1-2 1Z" class="animable" transform-origin="297.562px 134.864px"/>
    <path id="elkumzk53bllf" fill="#fff" d="M229 183h60l2 1-2 1h-60l-1-1 1-1Z" class="animable" transform-origin="259.225px 184.225px"/>
    <path id="elddlxab1w2vv" fill="#fff" d="M230 188h92c1 0 2 0 1 1l-1 1h-92l-2-1 2-1Z" class="animable" transform-origin="275.904px 188.86px"/>
    <path id="el8edh6dvhm72" fill="#fff" d="M327 129h-47l-2-1 2-1h47l2 1a2 2 0 0 1-2 1Z" class="animable" transform-origin="303.421px 128.328px"/>
    <g id="elkye33qnvfdk">
      <path id="elgmo7362sc" fill="#fff" d="M266 129h-43l-1-1 1-1h43l2 1-2 1Z" class="animable" opacity=".5" transform-origin="244.693px 128.325px"/>
    </g>
    <g id="elf97m5eqndof">
      <path id="elhcatp2d9y7g" fill="#fff" d="m303 183 1 1-1 1h-5l-1-1 1-1Z" class="animable" opacity=".5" transform-origin="300.426px 184.225px"/>
    </g>
    <g id="elko2y4nzwth">
      <path id="elbcl3wbjrab" fill="#fff" d="m246 179-2 1h-6l-1-1h9Z" class="animable" opacity=".5" transform-origin="241.029px 179.44px"/>
    </g>
    <g id="elozolr647is">
      <path id="el0qdtqm1ycnde" fill="#fff" d="m322 159-1 1h-8l-1-1 2-1h7l1 1Z" class="animable" opacity=".5" transform-origin="317.153px 158.67px"/>
    </g>
    <g id="elb2zmp7jn2u">
      <path id="elbpqio3yc3id" fill="#fff" d="m346 163 1 1a2 2 0 0 1-2 1h-6l-1-1a2 2 0 0 1 2-1Z" class="animable" opacity=".5" transform-origin="342.303px 164.12px"/>
    </g>
    <g id="elbqg41daijre">
      <path id="el7zg1ur770pg" fill="#fff" d="m249 148-2-1 1-1h7l1 1-1 1Z" class="animable" opacity=".5" transform-origin="251.62px 147.155px"/>
    </g>
    <path id="el59to462ji7l" fill="#fff" d="M163 117a2 2 0 0 1-3 3 4 4 0 0 1-3-3 2 2 0 0 1 2-3 4 4 0 0 1 4 3Z" class="animable" transform-origin="159.55px 117.341px"/>
    <path id="eladxw9132r8" fill="#fff" d="M171 117a2 2 0 0 1-2 3 4 4 0 0 1-4-3 2 2 0 0 1 2-3 4 4 0 0 1 4 3Z" class="animable" transform-origin="167.693px 117.391px"/>
    <path id="elbpgmb8uoge" fill="#fff" d="M179 117a2 2 0 0 1-2 3 4 4 0 0 1-4-3 2 2 0 0 1 2-3 4 4 0 0 1 4 3Z" class="animable" transform-origin="175.922px 117.341px"/>
    <g id="el4uajtafpfml">
      <path id="ely5hp3ox4iba" fill="#fff" d="m100 106 27 72 33-72h-60z" class="animable" opacity=".1" transform-origin="130.11px 142.455px"/>
    </g>
    <g id="elloqwf9lepfb">
      <path id="elqlk9l8sqw7m" fill="#fff" d="m146 199 54-93h56l-79 93h-31z" class="animable" opacity=".1" transform-origin="201.04px 152.685px"/>
    </g>
    <g id="elurdfct2wcje">
      <path id="elj92v1s8lfcb" fill="#fff" d="m281 106-84 93h12l88-93h-16z" class="animable" opacity=".1" transform-origin="246.51px 152.455px"/>
    </g>
    <g id="elfr061lyn70n">
      <path id="elfam5pwysbw9" fill="#fff" d="m297 199 93-93h13l-96 93h-10z" class="animable" opacity=".1" transform-origin="349.87px 152.685px"/>
    </g>
  </g>
  <defs>
    <filter id="active" height="200%">
      <feMorphology in="SourceAlpha" operator="dilate" radius="2" result="DILATED"/>
      <feFlood flood-color="#32DFEC" flood-opacity="1" result="PINK"/>
      <feComposite in="PINK" in2="DILATED" operator="in" result="OUTLINE"/>
      <feMerge>
        <feMergeNode in="OUTLINE"/>
        <feMergeNode in="SourceGraphic"/>
      </feMerge>
    </filter>
    <filter id="hover" height="200%">
      <feMorphology in="SourceAlpha" operator="dilate" radius="2" result="DILATED"/>
      <feFlood flood-color="red" flood-opacity=".5" result="PINK"/>
      <feComposite in="PINK" in2="DILATED" operator="in" result="OUTLINE"/>
      <feMerge>
        <feMergeNode in="OUTLINE"/>
        <feMergeNode in="SourceGraphic"/>
      </feMerge>
      <feColorMatrix values="0 0 0 0 0 0 1 0 0 0 0 0 0 0 0 0 0 0 1 0"/>
    </filter>
  </defs>
  <defs>
    <clipPath id="freepik--clip-path--inject-26">
      <path fill="#fff" d="M348 388v-44l2-13c1-7-5-17-6-17l-6-1s-4-5-7-6a18 18 0 0 0-8-1 37 37 0 0 0-9-6 7 7 0 0 0-8 2l-4 7a5 5 0 0 0 0 6c2 3 5 2 7 2l2-3v13c0 2-4 5-4 5l-12-16a115 115 0 0 1-11-18 9 9 0 0 0-1-2c-2-2-7-3-8 1a9 9 0 0 0 0 5c5 15 12 26 18 37l3 10v1l-2 10a46 46 0 0 0-4-12 28 28 0 0 0 1-7 9 9 0 0 0-3-7 6 6 0 0 0-4-1 4 4 0 0 0-4 3 38 38 0 0 1-1 5 54 54 0 0 1-3 7c0 5 3 4 5 22 2 14 20 23 30 33l10 33a202 202 0 0 0 35-18Z"/>
    </clipPath>
    <clipPath id="freepik--clip-path-2--inject-26">
      <path fill="#fff" d="M237 336c0-2-3-1-3-1-9 0-11 15-11 15l-3 10-1-15v-20s3-19 2-21a4 4 0 0 0-4-3c-6-2-6 6-6 6l-5 16-2 18-1-1-1-19 2-13 3-5a6 6 0 0 0 0-5c-2-5-7-3-8 0a70 70 0 0 1-4 7l-5 14-2 20-2-1-3-9 3-10s5-6 4-9-5-2-5-2l-9 10h-3l-6 8a48 48 0 0 0-1 25l1 6v42l-4 7-4 12a204 204 0 0 0 35 17l10-25 15-15s11-18 12-23l4-17a6 6 0 0 0 1-2l-1-7c0-4 3-8 2-10Z"/>
    </clipPath>
    <clipPath id="freepik--clip-path-3--inject-26">
      <path fill="#fff" stroke="#263238" stroke-miterlimit="10" d="M450 317a72 72 0 0 1-1 12c-3 17-12 30-23 30a14 14 0 0 1-3 0c-11-3-20-20-20-42 0-23 10-31 23-31s24 8 24 31Z"/>
    </clipPath>
  </defs>
</svg>
