<svg xmlns="http://www.w3.org/2000/svg" xml:space="preserve" viewBox="0 0 734.68 97.0533" role="img" aria-labelledby="logo-redventures-title logo-redventures-desc">
  <title>Red Ventures</title>
  <desc>Red Ventures Logo</desc>
  <g>
    <path d="M25.235 48.345c5.8453 0 7.5462-3.2567 7.5462-5.922 0-2.0702-1.253-5.692-6.1395-5.692h-6.661v11.614Zm27.1562 30.1182H37.0755L25.7527 56.4085h-5.772v13.5459h6.2922v8.5088H0v-8.5088h6.8854V36.7309H0v-8.515h31.3021c9.7708 0 15.0943 6.439 15.0943 14.0593 0 5.775-2.81 9.8407-8.6547 12.5063l8.138 15.1729h6.5115v8.5088M69.5584 69.9544h5.9233V36.7309h-5.9233v-8.515h44.1807V44.121h-9.5459v-7.3902H88.5755v11.536h12.5813v8.5182H88.5755v13.1693h15.6177v-7.4765h9.5459v15.9853H69.5584v-8.5088M159.324 69.9544c9.9907 0 14.652-6.4401 14.652-16.4313 0-10.8047-5.3253-16.7922-15.0987-16.7922h-4.5133v33.2235Zm-25.6813 0h7.6226V36.7309h-7.6226v-8.515h26.2706c9.104 0 15.3934 1.7014 20.4987 6.8104 5.0333 5.0301 7.1787 11.5406 7.1787 18.4229 0 13.0235-8.064 25.014-24.0467 25.014h-29.9013v-8.5088M237.3173 36.731h-5.924v-8.5151h24.868v8.515h-5.7693l8.3613 25.1531h.1454l8.4373-25.153h-5.5507v-8.5151h21.168v8.515h-5.9226l-14.58 42.1011h-10.1374l-15.096-42.101M300.3667 69.9544h5.9173V36.7309h-5.9173v-8.515h44.1773V44.121H335v-7.3902h-15.6187v11.536h12.58v8.5182h-12.58v13.1693H335v-7.4765h9.544v15.9853h-44.1773v-8.5088M363.5613 69.9544h6.732V36.7309h-6.732v-8.515h21.0214l18.424 31.3776h.1413V36.7309h-6.5053v-8.515h22.5653v8.515h-7.1v41.7323h-11.252l-21.46-36.9296h-.1467v28.4208h6.2894v8.5088h-21.9774v-8.5088M483.2987 48.4179h-8.7347v-11.687h-7.5467v33.2235h7.5467v8.5088h-28.1947v-8.5088h7.5454V36.7309h-7.5454v11.687h-8.732v-20.202h45.6614v20.202M501.3507 28.2159h23.3853v8.515h-4.372v25.523c0 4.9609 1.4867 8.2874 6.516 8.2874 4.224 0 6.9627-2.1416 6.9627-7.8396V36.731h-4.152v-8.515H549.08v8.515h-6.284v28.1115c0 11.6927-10.216 14.211-17.3227 14.211-9.8413 0-18.2026-3.7683-18.2026-16.0547V36.7309h-5.92v-8.515M592.1493 48.345c5.8454 0 7.544-3.2567 7.544-5.922 0-2.0702-1.256-5.692-6.14-5.692h-6.6586v11.614Zm27.1574 30.1182h-15.3174L592.664 56.4085h-5.7693v13.5459h6.2853v8.5088h-26.264v-8.5088h6.88V36.7309h-6.88v-8.515h31.304c9.7613 0 15.092 6.439 15.092 14.0593 0 5.775-2.8133 9.8407-8.656 12.5063l8.14 15.1729h6.5107v8.5088M636.476 69.9544h5.9213V36.7309h-5.9213v-8.515h44.1773V44.121h-9.548v-7.3902h-15.608v11.536h12.5707v8.5182h-12.5707v13.1693h15.608v-7.4765h9.548v15.9853H636.476v-8.5088M701.3746 61.3648h8.508c-.1506 5.403 3.3294 9.1088 7.696 9.1088 3.036 0 5.548-2.3724 5.548-5.403 0-9.1803-22.2706-7.9209-22.2706-23.6793 0-9.7708 7.3213-13.6968 13.54-13.6968 3.924 0 7.1013 1.5552 9.176 4.6703h.148v-4.149h8.4346v15.2463H723.72c-.664-4.588-3.404-7.4036-7.2467-7.4036-2.888 0-4.9653 1.7042-4.9653 4.073 0 8.1354 23.168 6.2844 23.168 24.0442 0 11.9922-9.2494 14.9531-14.5814 14.9531-4.4413 0-7.84-1.6328-10.064-4.8765h-.148v4.2109h-8.508V61.3648M210.3533 97.0533H207.44V.006h2.9133v97.0473"/>
  </g>
</svg>
