<svg viewBox="0 0 246 48" xmlns="http://www.w3.org/2000/svg" role="img" aria-labelledby="logo-allconnect-title logo-allconnect-desc">
  <title id="logo-allconnect-title">Allconnect</title>
  <desc id="logo-allconnect-desc">Allconnect Logo</desc>
  <path d="m77.537 19.977.15-2.476h4.391v17.952h-4.316l-.225-2.621c-1.05 2.112-3.94 3.131-6.005 3.168-5.479.036-9.532-3.241-9.532-9.54 0-6.191 4.24-9.432 9.645-9.396 2.477 0 4.841 1.13 5.892 2.913zm-5.48 1.056c-3.039 0-5.478 2.003-5.478 5.426s2.439 5.462 5.479 5.462c7.205 0 7.205-10.888 0-10.888zM85.678 10h4.542v25.453h-4.541V10zm8.292 0h4.54v25.453h-4.54V10zm21.088 20.246 3.077 2.913c-2.139 2.04-4.39 2.84-7.13 2.84-5.367 0-9.833-3.13-9.833-9.503s4.466-9.504 9.833-9.504c2.627 0 4.654.728 6.68 2.658l-2.89 2.95c-1.088-.947-2.44-1.42-3.715-1.42-3.077 0-5.33 2.184-5.33 5.316 0 3.423 2.403 5.243 5.255 5.243 1.464 0 2.927-.4 4.053-1.493zm13.92-13.109c5.892 0 9.683 4.224 9.683 9.359 0 5.17-3.64 9.358-9.645 9.358-6.005 0-9.608-4.188-9.608-9.358 0-5.135 3.678-9.359 9.57-9.359zm.038 4.042c-3.303 0-5.03 2.622-5.03 5.317 0 2.73 1.69 5.28 5.03 5.28 3.34 0 5.029-2.55 5.029-5.28 0-2.695-1.952-5.317-5.03-5.317zm30.733 14.274h-4.578V26.06c0-2.731-1.54-4.807-4.466-4.807-2.815 0-4.73 2.294-4.73 5.025v9.176h-4.54V17.465h4.09l.3 2.44c1.877-1.785 3.754-2.695 6.08-2.695 4.354 0 7.844 3.168 7.844 8.812v9.431zm21.877 0h-4.579V26.06c0-2.731-1.539-4.807-4.466-4.807-2.815 0-4.729 2.294-4.729 5.025v9.176h-4.54V17.465h4.09l.3 2.44c1.877-1.785 3.753-2.695 6.08-2.695 4.353 0 7.844 3.168 7.844 8.812v9.431zm22.026-7.392h-14.449c.3 2.222 2.29 3.824 5.517 3.824 1.689 0 3.903-.62 4.954-1.675l2.927 2.804c-1.951 1.966-5.141 2.913-7.956 2.913-6.38 0-10.17-3.824-10.17-9.577 0-5.462 3.828-9.395 9.832-9.395 6.193 0 10.058 3.714 9.345 11.106zm-14.374-3.677h9.983c-.3-2.33-2.176-3.496-4.804-3.496-2.476 0-4.503 1.165-5.179 3.496zm30.434 5.862 3.077 2.913c-2.14 2.04-4.39 2.84-7.13 2.84-5.367 0-9.833-3.13-9.833-9.503s4.466-9.504 9.832-9.504c2.627 0 4.654.728 6.68 2.658l-2.89 2.95c-1.087-.947-2.439-1.42-3.715-1.42-3.077 0-5.329 2.184-5.329 5.316 0 3.423 2.402 5.243 5.254 5.243 1.464 0 2.928-.4 4.054-1.493zm6.714-17.333 4.579-.473v5.098h5.104v3.823h-5.142v7.756c0 1.712.976 2.55 2.402 2.55.713 0 1.539-.22 2.214-.547l1.276 3.787c-1.313.51-2.402.729-3.79.765-4.016.146-6.643-2.076-6.643-6.555v-7.756h-3.452v-3.823h3.452v-4.625zm11.017 2.498v-.692c.461.182.853.272 1.175.272.246 0 .43-.044.553-.133.123-.089.184-.224.184-.405 0-.222-.197-.438-.593-.648l-.288-.147c-.695-.374-1.042-.786-1.042-1.236 0-.334.13-.601.389-.803.259-.201.601-.302 1.028-.302.334 0 .716.048 1.146.142v.642c-.438-.152-.784-.228-1.037-.228-.219 0-.382.037-.49.111-.107.075-.16.186-.16.335 0 .189.197.388.592.599l.306.163c.721.385 1.082.807 1.082 1.268 0 .4-.138.699-.414.898-.277.2-.691.3-1.244.3-.342 0-.737-.046-1.187-.136zm4.273.136v-4.23h1.175l1.02 2.972h.011l1.054-2.972H246v4.23h-.812v-3.195h-.017l-1.025 2.909h-.714l-1.008-2.95h-.012v3.236h-.697zM14.067 13.62a2.032 2.032 0 0 1 2.827 0 1.918 1.918 0 0 1 0 2.761 9.656 9.656 0 0 0 0 13.869c3.916 3.82 10.286 3.824 14.203 0a9.656 9.656 0 0 0 0-13.869 1.918 1.918 0 0 1 0-2.76 2.032 2.032 0 0 1 2.828 0 13.502 13.502 0 0 1 0 19.39c-2.738 2.672-6.333 4.007-9.93 4.007-3.595 0-7.19-1.335-9.928-4.008a13.498 13.498 0 0 1 0-19.39zm7.928-2.537c0-1.08.896-1.952 2-1.952 1.106 0 2 .872 2 1.952v10.692c0 1.078-.894 1.953-2 1.953-1.104 0-2-.875-2-1.953V11.083zm17.857 29.896C42.343 45.243 48.277 48 47.99 48V23.427C47.99 10.489 37.248 0 23.995 0 10.744 0 0 10.49 0 23.427c0 12.94 10.744 23.427 23.995 23.427a24.204 24.204 0 0 0 15.857-5.875z" fill="#FFFFFF"/>
</svg>
