<svg fill="none" xmlns="http://www.w3.org/2000/svg" viewBox="0 0 250 250">
  <path fill-rule="evenodd" clip-rule="evenodd" d="M75 0C33.5786 0 0 33.5786 0 75v100c0 41.421 33.5786 75 75 75h100c41.421 0 75-33.579 75-75V75c0-41.4214-33.579-75-75-75H75Zm0 25c-27.6142 0-50 22.3858-50 50v100c0 27.614 22.3858 50 50 50h100c27.614 0 50-22.386 50-50V75c0-27.6142-22.386-50-50-50H75Z" fill="#111827"/>
  <path fill-rule="evenodd" clip-rule="evenodd" d="M138.883 71H89v25.344h30.262L138.883 71Zm-13.895 30.991L89 148.904v24.048h76.32v-25.488h-40.896l40.896-52.416V71H149l-24 31-.012-.009Z" fill="#111827"/>
</svg>
