<svg xmlns="http://www.w3.org/2000/svg" viewBox="0 0 169.9 124.1" role="img" aria-labelledby="logo-cnet-title logo-cnet-desc">
  <title id="logo-cnet-title">CNET</title>
  <desc id="logo-cnet-desc">CNET Logo</desc>
  <path d="M163.4 86.6h6.5v7.8h-10.1c-3.3 0-6.5-1.6-5.6-1.2-4.7-2.1-6.5-7.2-6.9-12.9V15h10.6V31.4H168V39h-10.1v42.1c.2 4.2 2.7 5.5 5.5 5.5zm-59.3-6V44.8c-.3-20.2 35.3-20.3 34.7.5v17.2c0 1.1-.9 1.9-1.9 1.9h-22.2v16.7c.1 7.9 13.7 7.8 13.7 0v-8h10.5v7.5c.5 20.7-35.1 20.2-34.8 0zm24.1-24.1V44.8c0-7.8-13.5-7.8-13.7 0v11.7h13.7zM83.6 43.8c0-7.3-12.4-7.1-12.6.3v50.3H55.7v-7.8h4.9V39.2h-5.8v-7.7h14.8v5.7s1.8-2.7 6.5-5.3c6-3.3 11.9 0 11-.4 4.7 2.1 6.5 7.2 6.9 12.9v42.3h6.7v7.7h-17l-.1-50.6zM41.7 0h7.6v124.1h-7.6V0zM0 80.6V44.8c-.3-20.2 35.3-20.3 34.7.5v6.2H24.3l-.1-6.7c0-7.7-13.4-7.5-13.7.3v36c.1 7.9 13.7 7.8 13.7 0v-8h10.5v7.5c.6 20.7-35 20.2-34.7 0z" fill="#FFFFFF"/>
</svg>
