<svg xmlns="http://www.w3.org/2000/svg" xmlns:xlink="http://www.w3.org/1999/xlink" viewBox="0 0 1000 130.1296" role="img" aria-labelledby="logo-redventures-title logo-redventures-desc">
  <title>Red Ventures</title>
  <desc>Red Ventures Logo</desc>
  <defs>
    <path id="logo-red-ventures-a" d="M9.5713.5036H.3833v13.7662h9.188z"/>
  </defs>
  <g fill="none" fill-rule="evenodd">
    <path d="M34.35 64.8159c7.9544 0 10.2728-4.368 10.2728-7.9372 0-2.7789-1.7102-7.639-8.3569-7.639h-9.068v15.5762zm36.9653 40.3863h-20.851l-15.409-29.5747H27.198v18.164h8.5625v11.4107H0V93.7915h9.3706V49.2397H0V37.823h42.61c13.2933 0 20.5453 8.632 20.5453 18.8559 0 7.7432-3.8258 13.1939-11.786 16.7688l11.0808 20.3437h8.8652zM141.8245 83.7694h12.9909v21.4322H94.6809V93.791h8.057v-44.552h-8.057V37.8228h60.1345v21.3335h-12.991V49.239h-21.2563v15.4723h17.1221v11.4223h-17.1221V93.791h21.2564zM216.8632 93.7909c13.599 0 19.943-8.6319 19.943-22.0255 0-14.4907-7.249-22.5263-20.5483-22.5263h-6.1442V93.791zm-34.9524 0h10.3726V49.2391h-10.3726V37.8226h35.7605c12.3854 0 20.948 2.2838 27.9002 9.1326 6.8465 6.7446 9.7673 15.4778 9.7673 24.7089 0 17.4606-10.978 33.5376-32.734 33.5376h-40.694Z" fill="#FFFFFF"/>
    <path fill="#FFFFFF" d="M314.962 49.24V37.8232h33.8475V49.24h-7.8572l11.3802 33.7288L364.0188 49.24h-7.5546V37.8232h28.808V49.24h-8.06l-19.8431 56.4546h-13.7986L323.025 49.24zM455.9813 83.7694h12.9934v21.4322h-60.1344V93.791h8.057v-44.552h-8.057V37.8228h60.1344v21.3335h-12.9934V49.239h-21.2539v15.4723h17.1222v11.4223h-17.1222V93.791h21.254zM516.4154 55.6853h-.1999V93.791h8.5626v11.4107h-29.9162V93.791h9.1618v-44.552h-9.1618V37.8228h28.6086l25.079 42.077h.2V49.239h-8.8653V37.8227h30.7183V49.239h-9.6643v55.9626h-15.315zM657.8376 64.9147h-11.8857V49.2405h-10.276v44.5514h10.276v11.4107h-38.3761V93.792h10.27V49.2405h-10.27v15.6742H595.684v-27.091h62.1535zM682.4094 37.8226h31.8319V49.239h-5.9444v34.2352c0 6.6433 2.0186 11.1068 8.8651 11.1068 5.7446 0 9.4705-2.8744 9.4705-10.5134V49.2391h-5.6417V37.8226h26.3899V49.239h-8.5596v37.703c0 15.6746-13.9017 19.0527-23.575 19.0527-13.3962 0-24.7766-5.054-24.7766-21.5305V49.239h-8.06zM806.0038 64.8159c7.9572 0 10.2698-4.368 10.2698-7.9372 0-2.7789-1.7131-7.639-8.3598-7.639h-9.065v15.5762zm36.9653 40.3863h-20.851l-15.412-29.5747h-7.8573v18.164h8.5596v11.4107h-35.7547V93.7915h9.3648V49.2397h-9.3648V37.823h42.61c13.2934 0 20.5454 8.632 20.5454 18.8559 0 7.7432-3.8288 13.1939-11.786 16.7688l11.0808 20.3437h8.8652zM913.4741 83.7694h12.9935v21.4322H866.336V93.791h8.06v-44.552h-8.06V37.8228h60.1315v21.3335H913.474V49.239h-21.2509v15.4723h17.1222v11.4223h-17.1222V93.791h21.251z"/>
    <g transform="matrix(5.01 0 0 5.01 952.0463 34.6057)">
      <mask id="logo-red-ventures-b" fill="#FFFFFF">
        <use xlink:href="#logo-red-ventures-a" width="100%" height="100%"/>
      </mask>
      <path d="M.5235 9.5147h2.312c-.0398 1.4461.905 2.4382 2.0915 2.4382.824 0 1.5074-.6344 1.5074-1.4462 0-2.4567-6.051-2.1199-6.051-6.3376 0-2.615 1.9894-3.6655 3.6791-3.6655 1.0657 0 1.9296.4155 2.4927 1.2492h.041V.6423h2.2915v4.0809H6.5962C6.415 3.4948 5.6707 2.742 4.6256 2.742c-.7842 0-1.3472.4564-1.3472 1.0896 0 2.1777 6.2932 1.6831 6.2932 6.436 0 3.2095-2.5126 4.0022-3.9607 4.0022-1.207 0-2.1308-.4368-2.7349-1.3064h-.0405v1.1278H.5235Z" mask="url(#logo-red-ventures-b)" fill="#FFFFFF"/>
    </g>
    <path fill="#FFFFFF" d="M286.3218 130.1299V.0002h-3.964V130.13z"/>
  </g>
</svg>
