<svg viewBox="0 0 645 150" xmlns="http://www.w3.org/2000/svg" role="img" aria-labelledby="logo-mymove-title logo-mymove-desc">
  <title id="logo-mymove-title">MYMOVE</title>
  <desc id="logo-mymove-desc">MYMOVE Logo</desc>
  <g fill-rule="evenodd">
    <path d="M230.7 96.8h-6.2l-17.6-35.4v41.1H198v-55h11.2L227.6 84 246 47.5h11.1v55h-8.7l-.1-41.1zM297.9 84.5l-21.1-37h9.6l16.1 26.8 15.9-26.8h9.6l-20.7 36.7v18.3h-9.4zM380.4 96.8h-6.1l-17.7-35.4v41.1h-8.9v-55h11.2L377.4 84l18.3-36.5h11.1v55h-8.7V61.4zM460 47.5c-16.6 0-29.6 11.8-29.6 27.4 0 15.5 12.9 27.6 29.6 27.6 16.6 0 29.6-12 29.6-27.6 0-15.5-12.9-27.4-29.6-27.4Zm.1 46.8c-10.9 0-20.1-8.5-20.1-19.3s9.1-19.2 20.1-19.2c10.9 0 19.8 8.4 19.8 19.2.1 10.7-8.9 19.3-19.8 19.3ZM511.7 47.5l17.4 44.7 17.6-44.7h9.9l-22.8 55h-9.9l-22.5-55zM607.8 70.7V79h-26.4v15.2h30.4v8.3h-39.4v-55h38.4v8.3h-29.4v14.9zM625.4 59.3h-1.2V48.7h-3.4v-1.2h7.9v1.2h-3.3zM638.6 56.1h-.1l-4.5-6.3v9.5h-1.3V47.5h1.4l4.5 6.4 4.5-6.4h1.4v11.8h-1.4v-9.6z" />
    <path d="m3 37.8 70.9 52c.7.5 1.6.5 2.2 0L117 59.6c1.2-.9 3 0 3 1.5v72c0 1 .8 1.9 1.9 1.9h11.3c1 0 1.9-.8 1.9-2.1V31.4c0-1.3-1.7-2.2-3-1.3l-55.9 41c-.7.5-1.6.5-2.2 0L.8 17.5c-.5-.4-.8-.9-.8-1.5V1.9C0 .4 1.7-.5 3 .4l70.9 52c.7.5 1.6.5 2.2 0L135 9.2l12-8.8c1.2-.9 3 0 3 1.5V148.1c0 1-.8 1.9-1.9 1.9h-41.2c-1 0-1.9-.8-1.9-1.9V90.9c0-1.5-1.7-2.4-3-1.5l-25.9 19.1c-.7.5-1.6.5-2.2 0L18 67.5c-1.2-.9-3 0-3 1.5v64.1c0 1 .8 1.9 1.9 1.9h11.3c1 0 1.9-.8 1.9-1.9V98.7c0-1.5 1.7-2.4 3-1.5l11.3 8.3c.5.4.8.9.8 1.5v41.1c0 1-.8 1.9-1.9 1.9H1.9c-1 0-1.9-.8-1.9-1.9V39.3c0-1.5 1.7-2.4 3-1.5Z" fill-rule="nonzero" />
  </g>
</svg>
