<svg viewBox="0 0 390 47" xmlns="http://www.w3.org/2000/svg" role="img" aria-labelledby="logo-usps-title logo-usps-desc">
  <title id="logo-usps-title">USPS.COM</title>
  <desc id="logo-usps-desc">USPS eagle head logo</desc>
  <path fill="none" d="M66.3 47.2 76.3 0H10L0 47.2z"/>
  <path fill="#FFFFFF" d="M49.3 9.9c7.7 1.8 7.9 3.7 7.9 3.7 5 0 6.3 0 7.2.9 2.9 2.7-2 9.3-2 9.3-.6.4-55.8 22-55.8 22h58.1L74 1.9H11.6s36.8 7.8 37.7 8"/>
  <path fill="#FFFFFF" d="M55 16.3c-.8.4-3.2.8-4 .9-.8.1-1.2.1-1.2.3 0 .3 1.1.2 1.5.2 1.8 0 8.9-.5 10.6-.2 1.3.2-.2 2.8-.6 4.4-.1.6.3.3.5 0 .5-.8 1.9-3.4 2-4.4.2-2-1.2-2.3-3.6-2.3h-3.7c-.3 0-.4.1-.5.3-.3.3-.8.6-1 .8"/>
  <path fill="#FFFFFF" d="M32 31.1 2.3 45.8l7.2-33.7h30c.5 0 16.1 0 16.4 3.1h-27L33.1 28c4.8-2.3 16.6-7.1 23.7-7.4 3-.1 4.2.4 3.6.8-.4.2-3.3.6-5.6 1.2-4 1-4.2 1-8.4 2.4-4.7 1.6-8.6 3.4-14.4 6.1m62.2 15.7c-11.6 0-18.5-4.6-16.2-14.9 3.8-17.8 6.3-29.7 6.3-29.7H94S88.1 29.6 88.3 29c-1.5 6.8 0 10.9 7.4 10.9 7.1 0 10.7-4.1 12.2-10.9.9-3.9 5.7-26.8 5.7-26.8h9.7c-6.5 29.7 0 0-6.4 29.7-2.4 10.2-11.2 14.9-22.7 14.9m80.9-17.5c-1.5 0-4.7-.2-6.3-.5l1.2-6.3c1.2.1 2.8.3 4.3.3 6.6 0 9-4.5 9.5-7.2 1-4.8-1.4-6.5-4.9-6.5H171L163.2 46h-9.7l9.3-43.8h21c9.5 0 10.6 8.3 9.4 13.8-1.8 8.2-9.5 13.3-18.1 13.3M154.6 9.2h-10.3c-5.3 0-7.6 1.1-8.1 3.2-1.5 7 17.4 12.5 15.6 23.3-1 6-6.2 10.3-18.3 10.3h-14.8l1.5-7H132c3.7 0 8.2.2 9-3.5 1.4-6.3-17.2-12.5-15.8-23 .9-6.3 6.5-10.3 17.8-10.3h13l-1.4 7zm72.1 0h-10.3c-5.3 0-7.6 1.1-8.1 3.2-1.5 7 17.4 12.5 15.6 23.3-1 6-6.2 10.3-18.3 10.3h-14.8l1.5-7h11.9c3.7 0 8.2.2 9-3.5 1.4-6.3-17.2-12.5-15.8-23 .9-6.3 6.5-10.3 17.8-10.3h13l-1.5 7zm3.3 29c-2.1 0-3.9 1.7-3.9 3.9 0 2.1 1.7 3.9 3.9 3.9 2.1 0 3.9-1.7 3.9-3.9s-1.8-3.9-3.9-3.9"/>
  <path fill="#FFFFFF" fill-rule="evenodd" clip-rule="evenodd" d="m375.2 2-9.5 43.9h-8.1l7.2-32.6-19.3 32.6h-8.3l-4.6-30.5-6.7 30.5h-8L327.2 2h11.6l4.9 32.3L362.5 2z"/>
  <path fill="#FFFFFF" d="M255.6 46.8c-5.8 0-11-1.3-14.8-4.1-3.8-2.8-6.1-7.2-6.1-13.1 0-1.8.2-3.7.7-5.8C238.6 8.1 251.7 1.1 265 1.1c3.2 0 6.7.4 9.8 1l.7.1-1.6 7.1-.6-.1c-2.2-.2-3.7-.4-5.7-.4-1.8 0-3.5.1-5.4.3-4.7.7-6.1 1.5-8.7 3.2-3.9 2.4-7.3 6.5-8.5 11.9-.3 1.4-.5 2.7-.5 3.9 0 3.9 1.6 6.6 4.4 8.4 2.7 1.8 6.7 2.8 11.2 2.8 2.7 0 4-.1 6.6-.4l1-.1-1.5 6.9-.5.1c-3.6.6-6.4 1-10.1 1zm44.2-44.9c-13.4 0-24.5 7-27.7 22.3-2.6 12.3 4.9 22.4 18.2 22.4 13.5 0 24.3-6.7 27.7-22.4 2.6-12.8-5-22.3-18.2-22.3m9.2 22.4c-2.1 11-8.7 15.7-17 15.7-8.2 0-12.7-7.1-11.2-15.7 2-10.8 8.8-15.6 17-15.6 8.2-.1 12.9 6.6 11.2 15.6m71-16.8c0-2.6 2-4.6 4.5-4.6s4.5 2 4.5 4.6c0 2.7-2 4.7-4.5 4.7-2.6 0-4.5-2-4.5-4.7m-1 0c0 3.1 2.5 5.5 5.5 5.5s5.5-2.4 5.5-5.5-2.5-5.4-5.5-5.4c-3-.1-5.5 2.3-5.5 5.4m3.4 3.2h1V8h1.1l1.7 2.8h1.1L385.5 8c1-.1 1.7-.6 1.7-1.7 0-1.2-.7-1.8-2.2-1.8h-2.5v6.2m.9-5.6h1.3c.7 0 1.4.1 1.4 1 0 1-.8 1.1-1.7 1.1h-1V5.1z"/>
</svg>
